<svg width="700" height="560" viewBox="0 0 700 560" fill="none" xmlns="http://www.w3.org/2000/svg">
<path d="M414.5 238.621C410.2 254.221 402.5 266.121 399.2 265.221C399.2 265.221 401.5 255.321 404.6 239.421C408.2 221.021 408.7 208.021 416.3 208.721C419.8 209.021 418.8 223.021 414.5 238.621Z" fill="#F0BA92"/>
<g opacity="0.6">
<g opacity="0.6">
<path opacity="0.6" d="M408.7 232.121C404.8 247.821 402.5 266.121 399.2 265.221C399.2 265.221 402.5 251.021 405.6 235.221C409.2 216.821 408.8 210.421 416.4 211.121C416.4 211.121 413.5 213.121 408.7 232.121Z" fill="#D88D64"/>
</g>
</g>
<path d="M282.3 238.621C286.6 254.221 293.8 266.221 297.1 265.321C297.1 265.321 293.6 252.421 291.5 238.921C288.6 220.421 288 208.021 280.5 208.721C277.1 209.021 278 223.021 282.3 238.621Z" fill="#F0BA92"/>
<g opacity="0.6">
<g opacity="0.6">
<path opacity="0.6" d="M285.8 230.521C289.7 246.221 293.8 266.321 297.1 265.421C297.1 265.421 293.6 249.221 290.5 233.421C286.9 215.021 287.5 210.621 279.9 211.321C279.9 211.221 281 211.421 285.8 230.521Z" fill="#D88D64"/>
</g>
</g>
<path d="M391.3 345.721L350.2 371.621L309.1 345.721L307 284.421H389.2L391.3 345.721Z" fill="#F0BA92"/>
<g opacity="0.6">
<g opacity="0.6">
<path opacity="0.6" d="M389.2 294.021C381.8 309.521 352.8 319.121 348.1 319.121C343.4 319.121 318.7 312.021 307 294.021V272.421H389.2V294.021Z" fill="#D88D64"/>
</g>
</g>
<path d="M399.2 265.221C385.5 310.221 348.1 311.021 348.1 311.021C348.1 311.021 308.6 310.921 296.8 264.221C289 233.421 270.3 186.121 292.7 151.121C305.4 131.321 397.9 123.421 408.8 151.121C419.7 178.821 407.3 238.821 399.2 265.221Z" fill="#FFCCA9"/>
<path d="M348.2 249.821C346.2 248.421 343.1 245.221 344.9 239.921C346.4 235.321 346.7 226.621 346.7 226.521H348.4C348.4 226.921 348.2 235.621 346.6 240.421C345.2 244.521 347.3 247.021 349.3 248.421L348.2 249.821Z" fill="#D88D64"/>
<path d="M288.5 233.921C288.5 233.921 280.6 202.621 279.2 186.821C277.8 171.021 276.1 149.721 294 142.521C311.8 135.321 306.3 157.421 306.3 157.421C306.3 157.421 292.2 166.921 289.4 190.621C287.9 203.421 288.5 233.921 288.5 233.921Z" fill="#2A445D"/>
<path d="M407 233.521C407 233.521 415.8 202.621 417.2 186.821C418.6 171.021 420.3 149.721 402.4 142.521C384.6 135.321 390.1 157.321 390.1 157.321C390.1 157.321 404.2 166.821 407 190.521C408.6 203.421 407 233.521 407 233.521Z" fill="#2A445D"/>
<path d="M392.5 164.921C392.5 164.921 370.8 168.421 356.2 161.521C351.9 159.521 331.3 168.321 321.7 166.521C303.5 163.121 295.5 148.321 295.2 146.821C294.2 142.321 289.8 136.021 303 126.121C321.2 112.521 343.6 115.821 347.4 111.821C351.2 107.821 354.9 105.421 362.2 106.121C381.7 108.121 382.7 119.521 393.6 121.221C407.9 123.421 412.7 129.221 413.6 141.221C415.4 164.021 392.5 164.921 392.5 164.921Z" fill="#2A445D"/>
<path d="M351.1 108.821C351.1 108.821 345 113.221 329.6 131.021C314.3 148.921 306.3 147.821 304.5 148.121C304.5 148.121 317.7 150.421 331.8 132.021C345.9 113.521 351.1 108.821 351.1 108.821Z" fill="#1F384C"/>
<path d="M375.2 164.321C375.2 164.321 400.8 167.321 412 153.921C412 153.921 409.7 167.921 375.8 164.521L375.2 164.321Z" fill="#1F384C"/>
<path d="M333.1 164.721C302.9 168.921 294.2 144.021 294.4 144.521C299.2 159.621 311.2 165.421 320 167.721C322.7 168.421 325.3 168.921 327.9 169.021C329.3 169.121 330.2 169.121 330.2 169.121C330.2 169.121 330.2 169.121 330.3 169.121C359.2 169.421 382.5 138.821 382.5 138.821C362.8 155.721 345.4 162.321 333.1 164.721Z" fill="#1F384C"/>
<path d="M386.4 199.321C381.9 198.821 377.7 199.821 374.1 202.521C372.6 203.721 370.3 202.821 369.8 201.021C369.5 200.121 369.8 199.121 370.4 198.421C374.9 193.721 380.9 191.721 387.5 193.821C388.4 194.121 389 194.821 389.3 195.721V195.921C389.8 197.721 388.3 199.521 386.4 199.321Z" fill="#2A445D"/>
<path d="M371.5 216.921C369.7 216.921 368.3 218.721 368.3 221.021C368.3 223.321 369.7 225.121 371.5 225.121C373.3 225.121 374.7 223.321 374.7 221.021C374.7 218.821 373.2 216.921 371.5 216.921Z" fill="#210601"/>
<path d="M325.9 216.621C324.1 216.621 322.7 218.421 322.7 220.721C322.7 223.021 324.1 224.821 325.9 224.821C327.7 224.821 329.1 223.021 329.1 220.721C329.2 218.421 327.7 216.621 325.9 216.621Z" fill="#210601"/>
<path d="M311.1 199.321C315.5 198.621 319.8 199.521 323.5 202.121C325.1 203.221 327.3 202.321 327.7 200.421C327.9 199.521 327.7 198.521 327 197.821C322.3 193.321 316.2 191.521 309.7 193.821C308.8 194.121 308.2 194.921 308 195.821V196.021C307.6 197.821 309.2 199.521 311.1 199.321Z" fill="#2A445D"/>
<path d="M327.2 266.821C327.1 267.321 345.7 287.721 369.2 266.521" stroke="#D3976E" stroke-width="3.0451" stroke-miterlimit="10" stroke-linecap="round"/>
<path d="M163.1 245.121L130.7 228.821V302.321C130.7 302.321 143.3 317.321 163.1 317.321C186.6 317.321 195.5 303.421 195.5 303.421V239.521L163.1 245.121Z" fill="#FFCCA9"/>
<path d="M195.5 257.421C195.5 257.421 180 271.721 130.6 298.521L130.7 250.521L195.5 257.421Z" fill="#F0BA92"/>
<path d="M213.3 220.721C210 232.621 204.2 241.621 201.7 240.921C201.7 240.921 203.5 233.421 205.8 221.321C208.5 207.321 208.9 197.421 214.7 198.021C217.3 198.221 216.6 208.921 213.3 220.721Z" fill="#F0BA92"/>
<g opacity="0.6">
<g opacity="0.6">
<path opacity="0.6" d="M208.9 215.821C205.9 227.721 204.2 241.621 201.7 240.921C201.7 240.921 204.2 230.121 206.6 218.121C209.3 204.121 209.1 199.321 214.8 199.821C214.7 199.821 212.5 201.321 208.9 215.821Z" fill="#D88D64"/>
</g>
</g>
<path d="M112.7 220.721C116 232.621 121.4 241.721 124 241.021C124 241.021 121.3 231.221 119.7 220.921C117.5 206.821 117 197.421 111.3 197.921C108.8 198.221 109.5 208.921 112.7 220.721Z" fill="#F0BA92"/>
<g opacity="0.6">
<g opacity="0.6">
<path opacity="0.6" d="M115.4 214.521C118.4 226.421 121.5 241.721 124 241.021C124 241.021 121.3 228.721 119 216.621C116.3 202.621 116.7 199.321 111 199.821C110.9 199.921 111.8 200.021 115.4 214.521Z" fill="#D88D64"/>
</g>
</g>
<path d="M201.7 240.921C191.3 275.121 162.8 275.721 162.8 275.721C162.8 275.721 132.8 275.621 123.8 240.121C117.9 216.621 103.6 180.721 120.7 154.121C130.4 139.021 200.7 133.021 209 154.121C217.2 175.221 207.8 220.921 201.7 240.921Z" fill="#FFCCA9"/>
<path d="M117.5 217.221C117.5 217.221 111.5 193.421 110.4 181.321C109.3 169.321 108.1 153.121 121.6 147.621C135.2 142.121 131 158.921 131 158.921C131 158.921 120.3 166.121 118.1 184.221C117 194.021 117.5 217.221 117.5 217.221Z" fill="#2A445D"/>
<path d="M207.6 216.821C207.6 216.821 214.3 193.321 215.3 181.321C216.4 169.321 217.6 153.121 204.1 147.621C190.5 142.121 194.7 158.921 194.7 158.921C194.7 158.921 205.4 166.121 207.6 184.221C208.7 194.021 207.6 216.821 207.6 216.821Z" fill="#2A445D"/>
<path d="M196.5 164.721C196.5 164.721 180 167.321 168.9 162.121C165.7 160.621 149.9 167.321 142.7 165.921C128.9 163.321 122.8 152.121 122.5 150.921C121.7 147.521 118.4 142.721 128.4 135.221C142.2 124.821 159.3 127.321 162.2 124.321C165.1 121.321 167.9 119.421 173.5 120.021C188.3 121.521 189.1 130.221 197.4 131.521C208.3 133.221 211.9 137.621 212.6 146.721C213.9 164.021 196.5 164.721 196.5 164.721Z" fill="#2A445D"/>
<path d="M165.1 122.021C165.1 122.021 160.5 125.321 148.8 138.921C137.1 152.521 131.1 151.621 129.7 151.921C129.7 151.921 139.8 153.621 150.4 139.621C161.1 125.621 165.1 122.021 165.1 122.021Z" fill="#1F384C"/>
<path d="M183.4 164.221C183.4 164.221 202.9 166.521 211.4 156.321C211.4 156.321 209.6 166.921 183.9 164.421L183.4 164.221Z" fill="#1F384C"/>
<path d="M163.2 369.321C163.2 369.321 140.6 370.421 139 369.321C137.5 368.221 130.3 333.321 130.5 327.921C130.7 322.521 132.1 304.421 139 304.421C145.9 304.421 196.9 290.921 203.8 301.721C210.8 312.421 187 383.121 163.2 369.321Z" fill="#CCCCCC"/>
<path d="M163.2 298.721V325.821L155 328.721L143.3 308.821C143.3 308.821 154.4 299.521 163.2 298.721Z" fill="#C94D4D"/>
<path d="M131.1 280.521L124.9 283.621L139.6 334.221L163.1 298.721C163.2 298.721 150 296.721 131.1 280.521Z" fill="#DFE1DE"/>
<path d="M163.2 298.721V325.821L171.3 328.721L183 308.821C183.1 308.821 172 299.521 163.2 298.721Z" fill="#D47171"/>
<path d="M195.3 280.021L202.1 284.321L187.3 333.921L163.1 298.821C163.2 298.721 176.4 296.221 195.3 280.021Z" fill="#FAF8FA"/>
<path d="M104.7 337.921L111.5 328.221L114.9 323.321L102.6 303.021L98 295.521L97.9 295.321C97.9 295.321 49.9 317.221 49.8 317.321C46.4 321.021 40.2 354.121 36 382.921H138.9L104.7 337.921Z" fill="#3B556C"/>
<path d="M221.7 337.921L187.5 383.021H290.3C286.2 354.221 280 321.121 276.6 317.421C276.5 317.321 228.6 295.421 228.6 295.421L211.6 323.321L221.7 337.921Z" fill="#60768E"/>
<path d="M163.2 382.921V325.721L155 328.621C155 328.621 149.8 352.321 148.5 364.421L153.9 382.821H163.2V382.921Z" fill="#C94D4D"/>
<path d="M172.5 382.921L177.9 364.521C176.6 352.421 171.4 328.721 171.4 328.721L163.3 325.821V383.021H172.5V382.921Z" fill="#D47171"/>
<path d="M114.9 323.321L111.5 328.121L104.7 337.921L139 382.921H153.9L148.5 364.521L130.4 302.421L125 283.621L97.9 295.321L102.6 303.021L114.9 323.321Z" fill="#597D90"/>
<path d="M221.7 337.921L211.5 323.321L228.5 295.321L202.1 284.321L196.8 302.421L179.5 360.221L172.7 382.921H187.5L221.7 337.921Z" fill="#3D5B73"/>
<path d="M536.2 242.621L503.8 226.321V299.821C503.8 299.821 516.4 314.821 536.2 314.821C559.7 314.821 568.6 300.921 568.6 300.921V237.021L536.2 242.621Z" fill="#FFCCA9"/>
<path d="M568.7 255.021C568.7 255.021 553.2 269.321 503.8 296.121L503.9 248.121L568.7 255.021Z" fill="#F0BA92"/>
<path d="M586.5 218.221C583.2 230.121 577.4 239.121 574.9 238.421C574.9 238.421 576.7 230.921 579 218.821C581.7 204.821 582.1 194.921 587.9 195.521C590.5 195.721 589.8 206.421 586.5 218.221Z" fill="#F0BA92"/>
<g opacity="0.6">
<g opacity="0.6">
<path opacity="0.6" d="M582.1 213.321C579.1 225.221 577.4 239.121 574.9 238.421C574.9 238.421 577.4 227.621 579.8 215.621C582.5 201.621 582.3 196.821 588 197.321C587.9 197.321 585.7 198.821 582.1 213.321Z" fill="#D88D64"/>
</g>
</g>
<path d="M485.9 218.221C489.2 230.121 494.6 239.221 497.2 238.521C497.2 238.521 494.5 228.721 492.9 218.421C490.7 204.321 490.2 194.921 484.5 195.421C481.9 195.721 482.7 206.421 485.9 218.221Z" fill="#F0BA92"/>
<g opacity="0.6">
<g opacity="0.6">
<path opacity="0.6" d="M488.6 212.021C491.6 223.921 494.7 239.221 497.2 238.521C497.2 238.521 494.5 226.221 492.2 214.121C489.5 200.121 489.9 196.821 484.2 197.321C484.1 197.421 484.9 197.521 488.6 212.021Z" fill="#D88D64"/>
</g>
</g>
<path d="M574.8 238.521C564.4 272.721 535.9 273.321 535.9 273.321C535.9 273.321 505.9 273.221 496.9 237.721C491 214.221 476.7 178.321 493.8 151.721C503.5 136.621 573.8 130.621 582.1 151.721C590.4 172.721 581 218.421 574.8 238.521Z" fill="#FFCCA9"/>
<path d="M490.7 214.721C490.7 214.721 484.7 190.921 483.6 178.821C482.5 166.821 481.3 150.621 494.8 145.121C508.4 139.621 504.2 156.421 504.2 156.421C504.2 156.421 493.5 163.621 491.3 181.721C490.2 191.521 490.7 214.721 490.7 214.721Z" fill="#2A445D"/>
<path d="M580.8 214.321C580.8 214.321 587.5 190.821 588.5 178.821C589.6 166.821 590.8 150.621 577.3 145.121C563.7 139.621 567.9 156.421 567.9 156.421C567.9 156.421 578.6 163.621 580.8 181.721C581.9 191.521 580.8 214.321 580.8 214.321Z" fill="#2A445D"/>
<path d="M569.7 162.221C569.7 162.221 553.2 164.821 542.1 159.621C538.9 158.121 523.1 164.821 515.9 163.421C502.1 160.821 496 149.621 495.7 148.421C494.9 145.021 491.6 140.221 501.6 132.721C515.4 122.321 532.5 124.821 535.4 121.821C538.3 118.821 541.1 116.921 546.7 117.521C561.5 119.021 562.3 127.721 570.6 129.021C581.5 130.721 585.1 135.121 585.8 144.221C587.1 161.521 569.7 162.221 569.7 162.221Z" fill="#2A445D"/>
<path d="M538.3 119.521C538.3 119.521 533.7 122.821 522 136.421C510.3 150.021 504.3 149.121 502.9 149.421C502.9 149.421 513 151.121 523.6 137.121C534.3 123.121 538.3 119.521 538.3 119.521Z" fill="#1F384C"/>
<path d="M556.6 161.821C556.6 161.821 576.1 164.121 584.6 153.921C584.6 153.921 582.8 164.521 557.1 162.021L556.6 161.821Z" fill="#1F384C"/>
<path d="M536.2 369.321C536.2 369.321 558.8 370.421 560.4 369.321C562 368.221 569.1 333.321 568.9 327.921C568.7 322.521 567.2 304.421 560.4 304.421C553.6 304.421 502.6 290.921 495.6 301.721C488.6 312.421 512.4 383.121 536.2 369.321Z" fill="#CCCCCC"/>
<path d="M536.2 298.721V325.821L544.3 328.721L556 308.821C556 308.821 545 299.521 536.2 298.721Z" fill="#D47171"/>
<path d="M568.3 280.521L574.5 283.621L559.8 334.221L536.3 298.721C536.2 298.721 549.4 296.721 568.3 280.521Z" fill="#DFE1DE"/>
<path d="M536.2 298.721V325.821L528 328.721L516.3 308.821C516.4 308.821 527.4 299.521 536.2 298.721Z" fill="#C94D4D"/>
<path d="M504.1 280.021L497.3 284.321L512.1 333.921L536.3 298.821C536.2 298.721 523 296.221 504.1 280.021Z" fill="#FAF8FA"/>
<path d="M594.7 337.921L587.9 328.221L584.5 323.321L596.8 303.121L601.4 295.621L601.5 295.421C601.5 295.421 649.5 317.321 649.6 317.421C653 321.121 659.2 354.221 663.4 383.021H560.5L594.7 337.921Z" fill="#3B556C"/>
<path d="M477.7 337.921L511.9 383.021H409.1C413.2 354.221 419.4 321.121 422.9 317.421C423 317.321 471 295.421 471 295.421L488 323.321L477.7 337.921Z" fill="#60768E"/>
<path d="M536.2 382.921V325.721L544.3 328.621C544.3 328.621 549.5 352.321 550.8 364.421L545.4 382.821H536.2V382.921Z" fill="#D47171"/>
<path d="M526.9 382.921L521.5 364.521C522.8 352.421 528 328.721 528 328.721L536.2 325.821V383.021H526.9V382.921Z" fill="#C94D4D"/>
<path d="M584.5 323.321L587.9 328.121L594.7 337.921L560.5 382.921H545.5L550.9 364.521L569 302.421L574.4 283.621L601.5 295.321L596.8 303.021L584.5 323.321Z" fill="#597D90"/>
<path d="M477.7 337.921L487.9 323.321L470.9 295.321L497.2 284.321L502.6 302.421L519.9 360.221L526.7 382.921H511.9L477.7 337.921Z" fill="#3D5B73"/>
<path d="M349.7 435.121C349.7 435.121 319.7 436.521 317.7 435.121C315.7 433.721 306.2 387.421 306.5 380.221C306.7 373.021 308.7 349.021 317.7 349.021C326.8 349.021 394.4 331.121 403.6 345.421C412.8 359.821 381.3 453.421 349.7 435.121Z" fill="#CCCCCC"/>
<path d="M349.7 341.721V377.621L338.9 381.521L323.4 355.021C323.4 355.021 338 342.621 349.7 341.721Z" fill="#598997"/>
<path d="M307.2 317.521L299 321.721L318.6 388.721L349.7 341.621C349.7 341.721 332.2 339.021 307.2 317.521Z" fill="#DFE1DE"/>
<path d="M349.7 341.721V377.621L360.5 381.521L376 355.121C376 355.021 361.4 342.621 349.7 341.721Z" fill="#5CBFAB"/>
<path d="M392.3 316.821L401.4 322.521L381.8 388.221L349.8 341.621C349.7 341.721 367.2 338.321 392.3 316.821Z" fill="#FAF8FA"/>
<path d="M272.2 393.521L281.2 380.621L285.7 374.221L269.4 347.421L263.3 337.421L263.2 337.221C263.2 337.221 199.6 366.321 199.5 366.421C195 371.421 186.8 415.221 181.2 453.321H317.5L272.2 393.521Z" fill="#3B556C"/>
<path d="M427.2 393.521L381.8 453.221H518.1C512.6 415.121 504.4 371.221 499.9 366.321C499.8 366.221 436.2 337.121 436.2 337.121L413.7 374.121L427.2 393.521Z" fill="#60768E"/>
<path d="M349.7 453.321V377.621L338.9 381.521C338.9 381.521 332 412.921 330.3 429.021L337.4 453.421H349.7V453.321Z" fill="#598997"/>
<path d="M362 453.321L369.1 428.921C367.4 412.921 360.4 381.421 360.4 381.421L349.6 377.521V453.221H362V453.321Z" fill="#5CBFAB"/>
<path d="M285.7 374.221L281.2 380.621L272.2 393.521L317.6 453.321H337.4L330.3 428.921L306.3 346.521L299 321.721L263.2 337.221L269.4 347.421L285.7 374.221Z" fill="#597D90"/>
<path d="M427.2 393.521L413.8 374.221L436.2 337.221L401.3 322.521L394.2 346.521L371.4 423.121L362.3 453.321H381.8L427.2 393.521Z" fill="#3D5B73"/>
</svg>
