<svg id="Avatar_Flat" height="512" viewBox="0 0 128 128" width="512" xmlns="http://www.w3.org/2000/svg" data-name="Avatar Flat"><path d="m101.63 109.84c-2.28-3.51-8.74-11.19-20.35-16.28l-.02-.02a21.277 21.277 0 0 0 -8.22-4.81c-.18-.36-.32-.62-.62-1.11-.06-.1-.13-.21-.21-.34a9.537 9.537 0 0 1 -16.38 0c-.44.71-.6 1-.82 1.42-.01.01-.01.02-.02.03a21.233 21.233 0 0 0 -8.21 4.81l-.02.02c-11.61 5.09-18.08 12.77-20.35 16.28-2.65 4.1-.2 6.32 3.6 8.35 2.69 1.43 8.68 4.1 18.34 5.63v.01c2.08.33 4.33.61 6.75.8.86.08 1.73.14 2.63.19q2.985.18 6.29.18t6.28-.18c.9-.05 1.78-.11 2.64-.19 2.42-.19 4.67-.47 6.75-.8v-.01c9.66-1.53 15.65-4.2 18.34-5.63 3.8-2.03 6.25-4.25 3.6-8.35z" fill="#cae7ef"/><path d="m96.71 50.24a7.669 7.669 0 0 1 1.24 7.82c-1.43 3.82-5.95 6.71-9.78 5.31-1.576-4.339-.639-10.839 1.79-12.87 2.665-2.031 4.915-1.594 6.75-.26z" fill="#ff7364"/><path d="m72.21 87.28a9.537 9.537 0 0 1 -16.38 0 13.7 13.7 0 0 0 .8-2.86 22.669 22.669 0 0 0 .28-2.43v-.14c.02.01 14.18-.11 14.2-.12l.02.26c.05.84.14 1.6.25 2.29a14.06 14.06 0 0 0 .75 2.8c.03.07.05.14.08.2z" fill="#ff7364"/><path d="m75.32 96.53c-.03-.25-.07-.49-.11-.74a24.607 24.607 0 0 0 -2.17-7.06c-.18-.36-.32-.62-.62-1.11-.06-.1-.13-.21-.21-.34a9.537 9.537 0 0 1 -16.38 0c-.44.71-.6 1-.82 1.42-.01.01-.01.02-.02.03a25.555 25.555 0 0 0 -2.29 7.87c-1.58 11.06 1.44 24.81 2.4 28.03.86.08 1.73.14 2.63.19q2.985.18 6.29.18t6.28-.18c.9-.05 1.78-.11 2.64-.19.96-3.23 3.99-17.03 2.38-28.1z" fill="#36b1f2"/><path d="m38.414 50.573c1.555 1.177 5.148 10.052 1.446 12.8-3.83 1.4-8.35-1.49-9.78-5.31a7.669 7.669 0 0 1 1.24-7.82c2.597-1.493 5.212-1.487 7.094.33z" fill="#ff7364"/><path d="m66.22 100.79a9.036 9.036 0 0 0 2.553-3.061c-1.92-1.37-2.731-3.541-4.753-3.541-2.149 0-3.75 2.828-4.71 3.518v.084a8.826 8.826 0 0 0 2.51 3c-2.24 6.33-4.09 18.4-4.09 24.03q2.985.18 6.29.18t6.28-.18c0-5.63-1.85-17.7-4.08-24.03z" fill="#473049"/><path d="m68.773 97.729a9.036 9.036 0 0 1 -2.553 3.061 3.68 3.68 0 0 1 -4.4 0 8.826 8.826 0 0 1 -2.51-3v-.084c.96-.69 2.561-3.518 4.71-3.518 2.022 0 2.833 2.171 4.753 3.541z" fill="#473049"/><path d="m75.21 95.79a24.607 24.607 0 0 0 -2.17-7.06c-.18-.36-.75-1.32-.83-1.45a9.537 9.537 0 0 1 -16.38 0c-.08.13-.65 1.09-.83 1.45a24.607 24.607 0 0 0 -2.17 7.06c-.04.25-.289 2.155-.33 2.507.44.73 3.853 1.484 6.82-.507a21.718 21.718 0 0 0 2.68-2.404 5.393 5.393 0 0 1 1.087-.806 2.164 2.164 0 0 1 1.86 0 5.393 5.393 0 0 1 1.087.806 21.718 21.718 0 0 0 2.683 2.4c2.967 1.991 6.38 1.237 6.82.507-.037-.348-.287-2.253-.327-2.503z" fill="#36b1f2"/><g fill="#78c5ef"><path d="m48.34 100.72c-.47.1-5.89 1.32-5.6.12a13.634 13.634 0 0 1 4.02-7.28l.02-.02a21.233 21.233 0 0 1 8.21-4.81c-5.58 11.04-1.1 31.84.11 35.9-2.42-.19-4.67-.47-6.75-.8v-.01c-1.27-1.58-4.71-8.54-5.68-16-.22-1.64 1.35-4.78 5.67-7.1z"/><path d="m79.7 100.72c4.32 2.32 5.89 5.46 5.67 7.1-.97 7.46-4.41 14.42-5.68 16v.01c-2.08.33-4.33.61-6.75.8 1.21-4.06 5.69-24.86.1-35.9a21.277 21.277 0 0 1 8.22 4.81l.02.02a13.634 13.634 0 0 1 4.02 7.28c.29 1.2-5.13-.02-5.6-.12z"/><path d="m75.21 95.79a24.607 24.607 0 0 0 -2.17-7.06c-.18-.36-.75-1.32-.83-1.45a9.537 9.537 0 0 1 -16.38 0c-.08.13-.65 1.09-.83 1.45a24.607 24.607 0 0 0 -2.17 7.06c-.04.25-.289 2.155-.33 2.507.44.73 3.853 1.484 6.82-.507a21.718 21.718 0 0 0 2.68-2.404 5.393 5.393 0 0 1 1.087-.806 2.164 2.164 0 0 1 1.86 0 5.393 5.393 0 0 1 1.087.806 21.718 21.718 0 0 0 2.683 2.4c2.967 1.991 6.38 1.237 6.82.507-.037-.348-.287-2.253-.327-2.503z"/></g><path d="m71.38 84.28a13.544 13.544 0 0 1 -7.47 2.11 13.685 13.685 0 0 1 -7.28-1.97 22.669 22.669 0 0 0 .28-2.43v-.14c.02.01 14.18-.11 14.2-.12l.02.26c.05.84.14 1.6.25 2.29z" fill="#ed4850"/><path d="m89.96 50.5a98.406 98.406 0 0 1 -1.79 12.87c-2.34 10.24-10.11 16.12-17.05 18.6-.02.01-.04.01-.06.02a21.552 21.552 0 0 1 -7.04 1.41 21.605 21.605 0 0 1 -7.05-1.41c-.02-.01-.03-.01-.05-.02-6.94-2.48-14.72-8.35-17.06-18.6a98.4 98.4 0 0 1 -1.79-12.74c1.742-11.38 8.93-37.38 35.055-30.644 9.175 2.366 12.691 11.264 16.835 23.139.515 1.475 0 5.982 0 7.375z" fill="#ff977b"/><path d="m64.02 60.56c-.03 0-2.9-.072-2.9-1.67a1 1 0 0 1 1.842-.54 2.767 2.767 0 0 0 2.117 0 1 1 0 0 1 1.841.541c0 1.597-2.871 1.669-2.9 1.669z" fill="#ed4850"/><path d="m64.02 67.72c-1.939 0-3.441-.753-4.019-2.013a1 1 0 1 1 1.818-.833c.179.39.863.846 2.2.846s2.012-.456 2.191-.846a1 1 0 1 1 1.818.833c-.577 1.26-2.076 2.013-4.008 2.013z" fill="#ed4850"/><path d="m72.922 97.955a5.018 5.018 0 0 1 -3.621-.979 13.592 13.592 0 0 1 -1.7-1.521c-1.022-1.025-2.079-2.085-3.584-2.085a4.343 4.343 0 0 0 -2.966 1.473c-.212.2-.425.413-.645.634a14.334 14.334 0 0 1 -1.594 1.444c-.028.016-.055.033-.083.052a5.009 5.009 0 0 1 -3.614.982.981.981 0 0 0 -1.094.9 1 1 0 0 0 .9 1.093 7.048 7.048 0 0 0 4.879-1.279 1.179 1.179 0 0 0 .1-.069 15.44 15.44 0 0 0 1.921-1.713c.2-.206.4-.406.608-.6 1.669-1.6 2.189-1 3.754.575a15.335 15.335 0 0 0 1.953 1.738 7.045 7.045 0 0 0 4.2 1.379q.384 0 .78-.039a1 1 0 1 0 -.2-1.99z" fill="#269bea"/><path d="m109.5 95.012a5.276 5.276 0 0 1 -10.551 0 5.351 5.351 0 0 1 5.275-5.276 5.091 5.091 0 0 1 5.276 5.276z" fill="#78c5ef"/><path d="m104.219 101.288a6.284 6.284 0 0 1 -6.276-6.276 6.364 6.364 0 0 1 6.237-6.275 5.94 5.94 0 0 1 4.424 1.67 6.3 6.3 0 0 1 1.891 4.608 6.3 6.3 0 0 1 -6.276 6.273zm.206-10.556c-.056 0-.112 0-.167 0a4.373 4.373 0 0 0 -4.315 4.277 4.277 4.277 0 1 0 7.271-3.166 3.981 3.981 0 0 0 -2.789-1.111z" fill="#cae7ef"/><path d="m75.774 118.574a12.771 12.771 0 0 1 -12.757-12.758v-16.064a1 1 0 0 1 2 0v16.064a10.757 10.757 0 1 0 21.514 0v-18.654a9.344 9.344 0 1 1 18.688 0v7.778a1 1 0 0 1 -2 0v-7.778a7.344 7.344 0 1 0 -14.688 0v18.654a12.771 12.771 0 0 1 -12.757 12.758z" fill="#1b89e5"/><path d="m62.1 86.434v1.655a1.722 1.722 0 0 0 1 1.45 2.083 2.083 0 0 0 1.835 0 1.722 1.722 0 0 0 1-1.45v-1.655z" fill="#269bea"/><path d="m64.021 90.752a3.137 3.137 0 0 1 -1.369-.319 2.73 2.73 0 0 1 -1.552-2.344v-1.655a1 1 0 0 1 2 0v1.655a.757.757 0 0 0 .446.556 1.159 1.159 0 0 0 .939 0 .754.754 0 0 0 .447-.555v-1.656a1 1 0 0 1 2 0v1.655a2.732 2.732 0 0 1 -1.552 2.344 3.125 3.125 0 0 1 -1.359.319z" fill="#269bea"/><circle cx="51.252" cy="52.339" fill="#ffb19f" r="9.731"/><circle cx="76.977" cy="52.339" fill="#ffb19f" r="9.731"/><path d="m44.3 39.612a16.053 16.053 0 0 1 12.38-1.941 1.8 1.8 0 0 1 1.269 2.011 1.8 1.8 0 0 1 -1.921 1.536c-2.209-.172-6.145-.314-8.89.523-2.053.626-2.93.185-3.3-.4a1.3 1.3 0 0 1 .462-1.729z" fill="#473049"/><path d="m83.733 39.612a16.053 16.053 0 0 0 -12.38-1.941 1.8 1.8 0 0 0 -1.269 2.011 1.8 1.8 0 0 0 1.922 1.536c2.208-.172 6.145-.314 8.889.523 2.053.626 2.93.185 3.3-.4a1.3 1.3 0 0 0 -.462-1.729z" fill="#473049"/><rect fill="#4b3956" height="6.718" rx="2.379" transform="matrix(-1 0 0 -1 103.84 101.482)" width="4.757" x="49.541" y="47.382"/><rect fill="#4b3956" height="6.718" rx="2.379" width="4.757" x="73.734" y="47.382"/><path d="m55.34 50.09a1 1 0 0 1 -1-1c0-.965-1.322-1.81-2.83-1.81s-2.83.845-2.83 1.81a1 1 0 0 1 -2 0c0-2.1 2.167-3.81 4.83-3.81s4.83 1.709 4.83 3.81a1 1 0 0 1 -1 1z" fill="#473049"/><path d="m80.35 50.09a1 1 0 0 1 -1-1c0-.965-1.323-1.81-2.83-1.81s-2.83.845-2.83 1.81a1 1 0 0 1 -2 0c0-2.1 2.166-3.81 4.83-3.81s4.83 1.709 4.83 3.81a1 1 0 0 1 -1 1z" fill="#473049"/><path d="m76.978 41.607a10.748 10.748 0 0 0 -10.5 8.532h-4.72a10.731 10.731 0 1 0 .228 2.2c0-.067-.008-.132-.01-.2h4.283c0 .067-.01.132-.01.2a10.731 10.731 0 1 0 10.729-10.732zm-25.726 19.463a8.732 8.732 0 1 1 8.731-8.732 8.741 8.741 0 0 1 -8.731 8.732zm25.726 0a8.732 8.732 0 1 1 8.73-8.732 8.742 8.742 0 0 1 -8.73 8.732z" fill="#fff"/><path d="m93.13 16.14c17.88 6.69 19.36 29.79 3.58 34.1a14.049 14.049 0 0 1 -6.75.26 13.534 13.534 0 0 1 -3.97-1.58c-12.55-7.38-7.51-21.27-15.28-26.7-6.94-4.85-15.91 1.98-16.5 10.93-.47 6.98-6.95 16.08-16.14 17.48a16.258 16.258 0 0 1 -6.75-.39c-.51-.13-1.46-.48-1.97-.67-12.97-4.77-11.79-25.07 6.41-35.45 13.64-7.79 25.16-13.79 37.09-9.91s10.49 8.27 20.28 11.93z" fill="#4b3956"/><path d="m64 87.505c-16 0-29.012-13.646-29.012-30.418 0-.552.365-1.616.918-1.616s1.132.189 1.132.741c0 17.553 13.971 29.293 26.962 29.293s26.978-11.93 26.978-29.483c0-.552.587-.334 1.14-.334s.894.847.894 1.4c0 16.771-13.012 30.417-29.012 30.417z" fill="#1b89e5"/><path d="m33.252 53.718h1.834a1.971 1.971 0 0 1 1.971 1.971 1.971 1.971 0 0 1 -1.971 1.971h-1.023a2.376 2.376 0 0 1 -2.376-2.376 1.565 1.565 0 0 1 1.565-1.565z" fill="#544587" transform="matrix(-1 0 0 -1 68.744 111.377)"/><path d="m93.353 53.718h1.023a1.971 1.971 0 0 1 1.971 1.971 1.971 1.971 0 0 1 -1.971 1.971h-1.834a1.565 1.565 0 0 1 -1.565-1.565 2.376 2.376 0 0 1 2.376-2.376z" fill="#544587"/></svg>