<svg id="Flat" height="512" viewBox="0 0 128 128" width="512" xmlns="http://www.w3.org/2000/svg"><path d="m26.016 61.879c.745 4.487 5.453 9.606 10.313 8.812l-2.648-17.544c-6.071-.392-8.581 3.218-7.665 8.732z" fill="#ff6e8d"/><path d="m94.259 53.147-2.649 17.544c4.861.794 9.569-4.325 10.314-8.812.916-5.514-1.595-9.124-7.665-8.732z" fill="#ff6e8d"/><path d="m92.146 64.179a1.5 1.5 0 0 1 -1.381-2.087c1.078-2.541 4.978-4.068 7.079-3.874a1.5 1.5 0 0 1 -.289 2.987c-1.023-.1-3.569.976-4.028 2.059a1.5 1.5 0 0 1 -1.381.915z" fill="#ef457a"/><path d="m35.854 64.179a1.5 1.5 0 0 1 -1.381-.915c-.459-1.083-3-2.164-4.028-2.059a1.5 1.5 0 0 1 -.289-2.987c2.1-.192 6 1.334 7.079 3.874a1.5 1.5 0 0 1 -1.381 2.087z" fill="#ef457a"/><path d="m84.52 106.25c-4.52 15.33-31.52 25.25-41.04 0a14.511 14.511 0 0 0 6.78-9.32 26.969 26.969 0 0 0 .55-6.63h26.38a26.716 26.716 0 0 0 .55 6.6 14.491 14.491 0 0 0 6.78 9.35z" fill="#ff6e8d"/><path d="m115.521 125.76h-103.042a2 2 0 0 1 -1.729-3.009 22.615 22.615 0 0 1 4.08-4.931c5.56-5.2 22.59-7.87 28.65-11.57.01-.01.02-.01.03-.02 5.02 2.91 17.26 7.14 37.55-2.83a15.4 15.4 0 0 0 3.46 2.85c6.06 3.7 23.09 6.37 28.65 11.57a22.615 22.615 0 0 1 4.08 4.931 2 2 0 0 1 -1.729 3.009z" fill="#349ab2"/><path d="m77.74 96.9a33.982 33.982 0 0 1 -11.64 5.13 9.289 9.289 0 0 1 -4.26 0 33.8 33.8 0 0 1 -11.58-5.1 26.969 26.969 0 0 0 .55-6.63h26.38a26.716 26.716 0 0 0 .55 6.6z" fill="#ef457a"/><path d="m94.3 47.383q-29.307-43.8-60.654 0c-.455 16.459 2.965 31.162 10.279 38.249 4.179 4.049 9.475 8.418 17.917 10.4a9.349 9.349 0 0 0 4.261 0c8.443-1.984 13.738-6.353 17.917-10.4 7.311-7.087 10.732-21.79 10.28-38.249z" fill="#ff99a8"/><path d="m63.97 69.045a6.8 6.8 0 0 1 -4.435-1.845 1.4 1.4 0 1 1 1.82-2.116c1.833 1.577 3.4 1.577 5.229 0a1.4 1.4 0 1 1 1.816 2.116 6.8 6.8 0 0 1 -4.43 1.845z" fill="#ef457a"/><path d="m48.949 61.2c-6.644 0-8.553-.654-9.706-3.514-1.463-3.63-1.282-7.914 2.728-8.886 2.741-.664 12.461-.294 12.461-.294 5.753 0 5.647 4.164 5.056 7.184-.743 3.794-.805 5.51-10.539 5.51z" fill="#ffc2cb"/><path d="m79.054 61.2c6.644 0 8.553-.654 9.706-3.514 1.463-3.63 1.281-7.914-2.729-8.886-2.741-.664-12.461-.294-12.461-.294-5.753 0-5.646 4.164-5.055 7.184.743 3.794.805 5.51 10.539 5.51z" fill="#ffc2cb"/><path d="m57.545 111.186a29.164 29.164 0 0 1 -14.788-3.658 1.5 1.5 0 0 1 1.505-2.6c5.189 3.007 16.782 6.632 36.136-2.878.031-.015.061-.029.092-.041.072-.03.14-.066.21-.1l.22-.109a1.5 1.5 0 0 1 1.28 2.714l-.152.075c-.121.061-.242.12-.365.174-9.817 4.82-17.826 6.423-24.138 6.423z" fill="#ffd2d2"/><path d="m56.627 47.817c-1.55-.37-3.106-.709-4.669-.966a36.25 36.25 0 0 0 -4.662-.524 13.13 13.13 0 0 0 -2.207.054c-.314.042-.694.116-1.07.19l-1.1.269a17.268 17.268 0 0 0 -4.151 1.652l-.139.082a.758.758 0 0 1 -1-1.1 10.159 10.159 0 0 1 4.371-3.263 13.928 13.928 0 0 1 2.6-.821 15.929 15.929 0 0 1 2.734-.245 28.685 28.685 0 0 1 5.187.48 32.389 32.389 0 0 1 4.969 1.32 1.5 1.5 0 0 1 -.84 2.878z" fill="#84444f"/><path d="m70.51 44.945a32.431 32.431 0 0 1 4.97-1.32 28.677 28.677 0 0 1 5.187-.48 15.909 15.909 0 0 1 2.733.245 13.915 13.915 0 0 1 2.607.821 10.159 10.159 0 0 1 4.367 3.261.759.759 0 0 1 -.995 1.1l-.139-.083a17.268 17.268 0 0 0 -4.151-1.652l-1.105-.269c-.376-.074-.756-.148-1.07-.19a13.13 13.13 0 0 0 -2.207-.054 36.25 36.25 0 0 0 -4.662.524c-1.563.257-3.119.6-4.669.966h-.018a1.5 1.5 0 0 1 -.848-2.876z" fill="#84444f"/><path d="m42.477 107.9a8.415 8.415 0 0 1 -6.727-4.37 5.025 5.025 0 0 1 2.361-6.674 4.491 4.491 0 0 1 3.786.182 5.554 5.554 0 0 1 2.608 2.862c2.3 5.544.544 7.245-.709 7.765a3.413 3.413 0 0 1 -1.319.235zm-2.7-8.375a1.34 1.34 0 0 0 -.516.1 2.079 2.079 0 0 0 -.742 2.753c.54 1.3 3.26 2.7 4.063 2.526.125-.36.071-1.646-.849-3.862a2.557 2.557 0 0 0 -1.183-1.324 1.767 1.767 0 0 0 -.772-.19z" fill="#ffd2d2"/><path d="m38.712 108.853a16.268 16.268 0 0 1 -5.819-1.137 1.5 1.5 0 1 1 1.07-2.8c5.357 2.046 8.589.148 8.724.067a1.5 1.5 0 0 1 1.595 2.541 10.961 10.961 0 0 1 -5.57 1.329z" fill="#ffd2d2"/><path d="m71.72 76.36a9.605 9.605 0 0 1 -.64 1.44c-1.07 1.97-3.97 3.52-7.08 3.52s-6.01-1.55-7.08-3.52a9.605 9.605 0 0 1 -.64-1.44 2.235 2.235 0 0 1 .85-2.61 1.911 1.911 0 0 1 1.03-.3h11.68a1.911 1.911 0 0 1 1.03.3 2.235 2.235 0 0 1 .85 2.61z" fill="#fff"/><circle cx="49.144" cy="55.323" fill="#93505e" r="2.85"/><circle cx="78.856" cy="55.323" fill="#93505e" r="2.85"/><g fill="#fff"><path d="m48.786 49.9a38.04 38.04 0 0 0 -6.462.355 2.845 2.845 0 0 0 -2 1.461c-.645 1.253-.524 3.324.315 5.406.754 1.869 1.665 2.575 8.315 2.575 8.234 0 8.413-.926 9.008-3.992l.059-.307c.417-2.127.3-3.553-.37-4.362-.564-.685-1.645-1.033-3.213-1.033-1.238-.043-3.433-.103-5.652-.103zm.163 12.8c-6.56 0-9.552-.619-11.1-4.453-1.191-2.954-1.264-5.833-.2-7.9a5.831 5.831 0 0 1 3.967-3.005c2.861-.692 11.855-.373 12.872-.335 2.448 0 4.307.716 5.467 2.125 1.89 2.3 1.219 5.721 1 6.846l-.058.3c-.897 4.661-2.164 6.422-11.948 6.422z"/><path d="m79.054 62.7c-9.785 0-11.054-1.762-11.954-6.422l-.059-.3c-.22-1.125-.891-4.551 1-6.846 1.161-1.41 3.022-2.126 5.529-2.126.959-.038 9.954-.357 12.814.336a5.83 5.83 0 0 1 3.968 3.005c1.063 2.067.99 4.946-.2 7.9-1.547 3.834-4.538 4.453-11.098 4.453zm.164-12.8c-2.209 0-4.385.056-5.591.1-1.625 0-2.706.349-3.27 1.034-.666.809-.787 2.235-.37 4.363l.059.306c.595 3.066.774 3.992 9.008 3.992 6.65 0 7.561-.706 8.315-2.575.839-2.082.96-4.153.315-5.406a2.845 2.845 0 0 0 -2.006-1.461 37.966 37.966 0 0 0 -6.46-.353z"/><path d="m68.3 55.779a1.484 1.484 0 0 1 -.569-.113 11.638 11.638 0 0 0 -3.757-.779 11.692 11.692 0 0 0 -3.756.779 1.5 1.5 0 0 1 -1.143-2.774 14.582 14.582 0 0 1 4.9-1.005 14.6 14.6 0 0 1 4.9 1.005 1.5 1.5 0 0 1 -.573 2.887z"/></g><path d="m63.97 2.494c12.8 0 26.352 5.124 31.542 10 7.547 7.083 4.851 33.113 4.644 39.587-.071 2.251-4.115 2.61-5.805 1.122-7.035-6.196-17.834-12.926-30.381-12.926s-23.346 6.73-30.381 12.923c-1.691 1.488-5.734 1.129-5.806-1.122-.206-6.474-2.9-32.5 4.645-39.587 5.189-4.873 18.74-9.997 31.542-9.997z" fill="#349ab2"/><path d="m53.511 54.431a4.378 4.378 0 0 0 -2.474-1.465 12.415 12.415 0 0 0 -3.183-.192 25.412 25.412 0 0 0 -3.27.556c-1.077.264-2.225.617-3.105.888l-.259.08a.613.613 0 0 1 -.729-.857 4.227 4.227 0 0 1 1.509-1.628 10.382 10.382 0 0 1 1.778-.92 11.6 11.6 0 0 1 7.983-.422 6.144 6.144 0 0 1 1.987 1.087 6.392 6.392 0 0 1 1.347 1.67l.017.03a1 1 0 0 1 -1.6 1.173z" fill="#84444f"/><path d="m72.906 53.228a6.392 6.392 0 0 1 1.347-1.67 6.144 6.144 0 0 1 1.987-1.087 11.6 11.6 0 0 1 7.982.422 10.354 10.354 0 0 1 1.779.92 4.227 4.227 0 0 1 1.511 1.628.612.612 0 0 1 -.727.857l-.261-.08c-.881-.271-2.028-.624-3.105-.888a25.4 25.4 0 0 0 -3.271-.556 12.41 12.41 0 0 0 -3.182.192 4.378 4.378 0 0 0 -2.474 1.465 1 1 0 0 1 -1.6-1.173z" fill="#84444f"/><path d="m102.274 79.177-1.719 3.483a3.167 3.167 0 0 1 -2.385 1.733l-3.844.559a3.167 3.167 0 0 0 -1.755 5.4l2.781 2.711a3.167 3.167 0 0 1 .911 2.8l-.657 3.837a3.169 3.169 0 0 0 4.6 3.34l3.438-1.808a3.168 3.168 0 0 1 2.948 0l3.438 1.808a3.168 3.168 0 0 0 4.6-3.34l-.657-3.828a3.168 3.168 0 0 1 .912-2.8l2.781-2.711a3.168 3.168 0 0 0 -1.756-5.4l-3.843-.559a3.17 3.17 0 0 1 -2.386-1.733l-1.719-3.483a3.168 3.168 0 0 0 -5.688-.009z" fill="#ffa13b"/><path d="m103.128 95.553a3.449 3.449 0 0 1 -2.444-1.009l-.953-.953a1.5 1.5 0 1 1 2.121-2.121l.953.953a.431.431 0 0 0 .608 0l6.074-5.488a1.5 1.5 0 1 1 2.013 2.225l-6.021 5.44a3.313 3.313 0 0 1 -2.351.953z" fill="#fff"/></svg>