<svg width="700" height="560" viewBox="0 0 700 560" fill="none" xmlns="http://www.w3.org/2000/svg">
<path d="M477.075 432.866L219.375 503.866C215.375 504.966 211.275 502.666 210.175 498.666L111.275 139.266C110.175 135.266 112.475 131.166 116.475 130.066L374.175 59.0657C378.175 57.9657 382.275 60.2657 383.375 64.2657L482.375 423.566C483.375 427.666 481.075 431.766 477.075 432.866Z" fill="#BFBFBF"/>
<path d="M368.365 69.2578L126.665 135.819L222.484 483.762L464.183 417.201L368.365 69.2578Z" fill="white"/>
<path d="M298.075 94.2658C290.275 85.6658 278.275 82.0658 267.075 85.1658L262.675 70.3658C259.675 59.2658 247.975 52.6658 236.775 55.7658C225.575 58.8658 218.975 70.4658 222.075 81.6658L226.375 97.0658L221.175 98.5658C210.175 101.766 201.875 110.866 199.675 122.166L198.275 129.166L303.475 100.166L298.075 94.2658ZM246.075 87.0658C240.075 88.7658 233.775 85.1658 232.075 79.1658C230.375 73.1658 233.975 66.8658 239.975 65.1658C245.975 63.4658 252.275 67.0658 253.975 73.0658C255.675 79.1658 252.075 85.4657 246.075 87.0658Z" fill="#D3D3D3"/>
<g opacity="0.78">
<g opacity="0.78">
<g opacity="0.78">
<g opacity="0.78">
<path opacity="0.78" d="M229.775 160.466C229.875 160.866 215.275 165.266 197.175 170.266C179.075 175.266 164.275 178.966 164.175 178.466C164.075 178.066 178.675 173.666 196.775 168.666C214.875 163.666 229.675 159.966 229.775 160.466Z" fill="#216093"/>
</g>
</g>
</g>
</g>
<g opacity="0.78">
<g opacity="0.78">
<g opacity="0.78">
<g opacity="0.78">
<path opacity="0.78" d="M198.875 180.866C198.975 181.266 191.975 183.566 183.275 185.966C174.575 188.366 167.375 189.966 167.275 189.566C167.175 189.166 174.175 186.866 182.875 184.466C191.575 182.066 198.775 180.466 198.875 180.866Z" fill="#216093"/>
</g>
</g>
</g>
</g>
<g opacity="0.78">
<g opacity="0.78">
<g opacity="0.78">
<g opacity="0.78">
<path opacity="0.78" d="M361.375 169.266C361.475 169.666 320.775 181.266 270.375 195.166C219.975 208.966 179.075 219.866 178.975 219.466C178.875 219.066 219.575 207.466 269.975 193.566C320.275 179.666 361.275 168.766 361.375 169.266Z" fill="#216093"/>
</g>
</g>
</g>
</g>
<g opacity="0.78">
<g opacity="0.78">
<g opacity="0.78">
<g opacity="0.78">
<path opacity="0.78" d="M366.175 186.666C366.275 187.066 325.575 198.666 275.175 212.566C224.775 226.466 183.875 237.366 183.775 236.866C183.675 236.466 224.375 224.866 274.775 210.966C325.075 197.066 365.975 186.166 366.175 186.666Z" fill="#216093"/>
</g>
</g>
</g>
</g>
<g opacity="0.78">
<g opacity="0.78">
<g opacity="0.78">
<g opacity="0.78">
<path opacity="0.78" d="M370.975 204.066C371.075 204.466 330.375 216.066 279.975 229.966C229.575 243.866 188.675 254.766 188.575 254.266C188.475 253.866 229.175 242.266 279.575 228.366C329.875 214.466 370.775 203.566 370.975 204.066Z" fill="#216093"/>
</g>
</g>
</g>
</g>
<g opacity="0.78">
<g opacity="0.78">
<g opacity="0.78">
<g opacity="0.78">
<path opacity="0.78" d="M375.675 221.466C375.775 221.866 335.075 233.466 284.675 247.366C234.275 261.266 193.375 272.166 193.275 271.666C193.175 271.266 233.875 259.666 284.275 245.766C334.675 231.866 375.575 220.966 375.675 221.466Z" fill="#216093"/>
</g>
</g>
</g>
</g>
<g opacity="0.78">
<g opacity="0.78">
<g opacity="0.78">
<g opacity="0.78">
<path opacity="0.78" d="M380.475 238.866C380.575 239.266 339.875 250.866 289.475 264.766C239.075 278.666 198.175 289.566 198.075 289.066C197.975 288.666 238.675 277.066 289.075 263.166C339.475 249.266 380.375 238.366 380.475 238.866Z" fill="#216093"/>
</g>
</g>
</g>
</g>
<g opacity="0.78">
<g opacity="0.78">
<g opacity="0.78">
<g opacity="0.78">
<path opacity="0.78" d="M385.275 256.166C385.375 256.566 344.675 268.166 294.275 282.066C243.975 295.966 202.975 306.866 202.875 306.466C202.775 306.066 243.475 294.466 293.875 280.566C344.275 266.666 385.175 255.766 385.275 256.166Z" fill="#216093"/>
</g>
</g>
</g>
</g>
<g opacity="0.78">
<g opacity="0.78">
<g opacity="0.78">
<g opacity="0.78">
<path opacity="0.78" d="M298.375 296.966C298.375 297.066 297.175 297.566 294.875 298.266C292.275 299.066 288.975 300.066 285.175 301.166C276.975 303.566 265.575 306.766 252.975 310.266C240.375 313.766 228.975 316.766 220.675 318.966C216.775 319.966 213.475 320.766 210.875 321.366C208.575 321.866 207.275 322.166 207.175 322.066C207.175 321.966 208.375 321.466 210.675 320.766C213.275 319.966 216.575 318.966 220.375 317.866C228.575 315.466 239.975 312.266 252.575 308.766C265.175 305.266 276.575 302.266 284.875 300.066C288.775 299.066 292.075 298.266 294.675 297.666C297.075 297.166 298.375 296.866 298.375 296.966Z" fill="#216093"/>
</g>
</g>
</g>
</g>
<g opacity="0.78">
<g opacity="0.78">
<g opacity="0.78">
<g opacity="0.78">
<path opacity="0.78" d="M357.275 123.666C357.375 124.066 350.975 126.266 342.875 128.466C334.775 130.666 328.175 132.166 328.075 131.666C327.975 131.266 334.375 129.066 342.475 126.866C350.575 124.666 357.175 123.166 357.275 123.666Z" fill="#216093"/>
</g>
</g>
</g>
</g>
<g opacity="0.78">
<g opacity="0.78">
<g opacity="0.78">
<g opacity="0.78">
<path opacity="0.78" d="M267.375 346.366C267.475 346.766 256.975 350.066 243.875 353.666C230.775 357.266 220.075 359.866 219.975 359.366C219.875 358.966 230.375 355.666 243.475 352.066C256.575 348.466 267.275 345.866 267.375 346.366Z" fill="#216093"/>
</g>
</g>
</g>
</g>
<g opacity="0.78">
<g opacity="0.78">
<g opacity="0.78">
<g opacity="0.78">
<path opacity="0.78" d="M273.375 361.666C273.475 362.066 262.775 365.466 249.475 369.066C236.175 372.766 225.275 375.366 225.175 374.966C225.075 374.566 235.775 371.266 249.075 367.566C262.375 363.866 273.175 361.266 273.375 361.666Z" fill="#216093"/>
</g>
</g>
</g>
</g>
<g opacity="0.78">
<g opacity="0.78">
<g opacity="0.78">
<g opacity="0.78">
<path opacity="0.78" d="M404.175 306.166C404.275 306.566 399.275 308.366 392.975 310.066C386.675 311.766 381.475 312.866 381.275 312.466C381.175 312.066 386.175 310.266 392.475 308.566C398.775 306.766 404.075 305.666 404.175 306.166Z" fill="#216093"/>
</g>
</g>
</g>
</g>
<g opacity="0.78">
<g opacity="0.78">
<g opacity="0.78">
<g opacity="0.78">
<path opacity="0.78" d="M408.875 320.166C408.975 320.566 403.975 322.366 397.675 324.066C391.375 325.766 386.175 326.866 385.975 326.466C385.875 326.066 390.875 324.266 397.175 322.566C403.475 320.766 408.775 319.666 408.875 320.166Z" fill="#216093"/>
</g>
</g>
</g>
</g>
<g opacity="0.78">
<g opacity="0.78">
<g opacity="0.78">
<g opacity="0.78">
<path opacity="0.78" d="M255.775 384.366C255.875 384.766 251.075 386.466 244.975 388.166C238.875 389.866 233.775 390.866 233.675 390.466C233.575 390.066 238.375 388.366 244.475 386.666C250.575 384.966 255.675 383.966 255.775 384.366Z" fill="#216093"/>
</g>
</g>
</g>
</g>
<g opacity="0.78">
<g opacity="0.78">
<g opacity="0.78">
<g opacity="0.78">
<path opacity="0.78" d="M414.175 336.466C414.275 336.866 410.675 338.266 406.075 339.566C401.475 340.866 397.675 341.466 397.575 341.066C397.475 340.666 401.075 339.266 405.675 337.966C410.275 336.766 414.075 336.066 414.175 336.466Z" fill="#216093"/>
</g>
</g>
</g>
</g>
<path d="M480.175 322.366C475.675 322.366 472.975 319.566 470.075 316.566C469.675 316.066 469.175 315.666 468.775 315.166C468.275 314.666 467.875 314.266 467.375 313.866C461.375 308.066 456.175 303.066 472.775 283.266C474.775 280.966 477.075 278.366 479.675 275.566C482.075 272.966 484.575 270.466 487.275 267.666C488.775 266.166 490.375 264.566 492.075 262.966C524.975 231.066 570.775 195.566 584.075 195.566C585.475 195.566 586.575 195.966 587.375 196.666C596.175 205.466 549.675 262.466 521.075 291.966C519.475 293.566 517.975 295.166 516.375 296.766C513.575 299.566 511.075 302.066 508.475 304.366C505.775 306.966 503.175 309.266 500.775 311.266C491.675 318.766 485.175 322.366 480.175 322.366Z" fill="#5A6E7F"/>
<path d="M584.075 196.366C585.275 196.366 586.175 196.666 586.775 197.266C594.175 204.666 554.375 256.466 520.475 291.366C518.875 292.966 517.375 294.566 515.775 296.166C512.975 298.966 510.375 301.566 507.875 303.766C505.075 306.366 502.575 308.666 500.175 310.566C490.475 318.766 484.475 321.466 480.175 321.466C475.375 321.466 472.675 317.966 469.375 314.566C462.975 308.166 456.075 304.366 473.375 283.666C475.375 281.366 477.575 278.766 480.175 275.966C482.475 273.566 484.975 270.966 487.775 268.066C489.275 266.566 490.875 264.966 492.575 263.366C524.675 232.366 570.975 196.366 584.075 196.366ZM584.075 194.666C569.375 194.666 519.975 234.666 491.475 262.266C489.875 263.866 488.275 265.366 486.675 266.966C483.875 269.766 481.375 272.266 478.975 274.866C476.375 277.666 474.075 280.266 472.075 282.566C464.475 291.666 460.875 298.266 460.775 303.466C460.675 308.466 463.775 311.466 466.775 314.366C467.175 314.766 467.675 315.266 468.175 315.666C468.675 316.166 469.075 316.566 469.475 317.066C472.375 320.066 475.275 323.066 480.175 323.066C485.375 323.066 491.875 319.566 501.275 311.766C503.675 309.766 506.275 307.466 508.975 304.866C511.575 302.466 514.175 299.966 516.875 297.166C518.375 295.666 519.975 294.066 521.575 292.366C538.875 274.566 557.075 253.066 570.375 234.766C594.075 202.166 589.375 197.466 587.875 195.966C586.975 195.166 585.675 194.666 584.075 194.666Z" fill="white"/>
<path d="M447.375 337.866H446.775L425.275 359.366L425.175 359.966L425.675 360.166L466.375 342.366L466.575 342.066L473.475 322.866L473.375 322.366L460.375 309.366L459.875 309.266L441.775 317.166L441.575 317.366L423.775 358.066L423.975 358.566L424.575 358.466L446.075 336.966V336.366C444.675 334.366 444.875 331.566 446.675 329.766C448.675 327.766 451.975 327.766 453.975 329.766C455.975 331.766 455.975 335.066 453.975 337.066C452.075 339.066 449.375 339.266 447.375 337.866Z" fill="#5A6E7F"/>
<path d="M492.575 263.466L520.375 291.266C554.275 256.266 593.975 204.566 586.675 197.166C579.375 189.866 527.575 229.566 492.575 263.466Z" fill="#5CBFAB"/>
<path d="M469.375 314.566C475.775 320.966 479.575 327.866 500.275 310.566L473.475 283.766C456.075 304.466 462.975 308.266 469.375 314.566Z" fill="#5CBFAB"/>
<path d="M500.175 310.566C502.475 308.566 505.075 306.366 507.875 303.766L480.175 276.066C477.575 278.866 475.275 281.366 473.375 283.766L500.175 310.566Z" fill="#97D5C9"/>
<path d="M480.175 276.066L507.875 303.766C510.275 301.466 512.875 298.966 515.775 296.166C517.275 294.666 518.875 293.066 520.475 291.366L492.675 263.566C491.075 265.166 489.475 266.666 487.875 268.266C484.975 270.966 482.475 273.566 480.175 276.066Z" fill="#5A6E7F"/>
</svg>
