<svg id="Flat" enable-background="new 0 0 128 128" height="512" viewBox="0 0 128 128" width="512" xmlns="http://www.w3.org/2000/svg"><g><path d="m59.744 7.779h59.076c3.505 0 6.346 2.841 6.346 6.346v99.751c0 3.505-2.816 5.865-6.32 5.865h-59.209c-3.505 0-6.239-2.361-6.239-5.865v-99.751c0-3.505 2.841-6.346 6.346-6.346z" fill="#374693"/><path d="m84.43 27.61c.001 3.545-2.873 6.419-6.418 6.42-.004 0-.008 0-.012 0h-7.54c-3.548 0-6.425-2.877-6.424-6.426 0-3.548 2.876-6.424 6.424-6.424h7.54c3.551.001 6.429 2.879 6.43 6.43z" fill="#ffa13b"/><path d="m84.43 51.87c.001 3.545-2.873 6.419-6.418 6.42-.004 0-.008 0-.012 0h-7.54c-3.546 0-6.42-2.874-6.42-6.42s2.874-6.42 6.42-6.42h7.54c3.547-.004 6.426 2.869 6.43 6.416z" fill="#ffa13b"/><path d="m84.43 76.13c.001 3.545-2.873 6.419-6.418 6.42-.004 0-.008 0-.012 0h-7.54c-3.546.003-6.422-2.869-6.425-6.415s2.869-6.422 6.415-6.425h.01 7.54c3.547-.004 6.426 2.869 6.43 6.416z" fill="#ffa13b"/><path d="m84.43 100.39c.006 3.545-2.863 6.424-6.408 6.43-.007 0-.015 0-.022 0h-7.54c-3.548-.002-6.423-2.88-6.421-6.429.002-3.546 2.876-6.419 6.421-6.421h7.54c3.548-.001 6.425 2.872 6.43 6.42z" fill="#ffa13b"/><path d="m114.53 27.61c.001 3.545-2.873 6.419-6.418 6.42-.004 0-.008 0-.012 0h-7.54c-3.548 0-6.425-2.877-6.424-6.426 0-3.548 2.876-6.424 6.424-6.424h7.54c3.551.001 6.429 2.879 6.43 6.43z" fill="#ffa13b"/><path d="m114.53 51.87c.001 3.545-2.873 6.419-6.418 6.42-.004 0-.008 0-.012 0h-7.54c-3.546 0-6.42-2.874-6.42-6.42s2.874-6.42 6.42-6.42h7.54c3.547-.004 6.426 2.869 6.43 6.416z" fill="#ffa13b"/><path d="m114.53 76.13c.001 3.545-2.873 6.419-6.418 6.42-.004 0-.008 0-.012 0h-7.54c-3.546 0-6.42-2.874-6.42-6.42s2.874-6.42 6.42-6.42h7.54c3.547-.004 6.426 2.869 6.43 6.416z" fill="#ffa13b"/><path d="m114.53 100.39c.006 3.545-2.863 6.424-6.408 6.43-.007 0-.015 0-.022 0h-7.54c-3.548-.002-6.423-2.88-6.421-6.429.002-3.546 2.876-6.419 6.421-6.421h7.54c3.548-.001 6.425 2.872 6.43 6.42z" fill="#ffa13b"/><path d="m62.287 60.253c-2.509-1.116-4.144-3.584-4.195-6.329v-.624h-45.466v.628c-.051 2.747-1.689 5.215-4.2 6.329-3.413 1.622-5.588 5.064-5.587 8.843v42.3c0 4.619 3.744 8.363 8.363 8.363h48.314c4.618-.001 8.362-3.745 8.362-8.363v-42.3c.002-3.781-2.175-7.226-5.591-8.847z" fill="#4772ea"/><path d="m10.763 35.236h49.191c2.406 0 4.15 1.94 4.15 4.345v11.687c0 2.406-1.745 4.388-4.15 4.388h-49.191c-2.406 0-4.356-1.95-4.356-4.356v-11.708c0-2.406 1.95-4.356 4.356-4.356z" fill="#ffebeb"/><g fill="#fff"><path d="m84.43 100.39c.006 3.545-2.863 6.424-6.408 6.43-.007 0-.015 0-.022 0h-3.77v-12.85h3.77c3.548-.001 6.425 2.872 6.43 6.42z"/><path d="m84.43 76.13c.001 3.545-2.873 6.419-6.418 6.42-.004 0-.008 0-.012 0h-3.77v-12.84h3.77c3.547-.004 6.426 2.869 6.43 6.416z"/><path d="m84.43 51.87c.001 3.545-2.873 6.419-6.418 6.42-.004 0-.008 0-.012 0h-3.77v-12.84h3.77c3.547-.004 6.426 2.869 6.43 6.416z"/><path d="m78 34.03h-3.77v-12.85h3.77c3.548-.002 6.427 2.873 6.429 6.421s-2.873 6.427-6.421 6.429c-.003 0-.006 0-.008 0z"/><path d="m114.53 100.39c.006 3.545-2.863 6.424-6.408 6.43-.007 0-.015 0-.022 0h-3.77v-12.85h3.77c3.548-.001 6.425 2.872 6.43 6.42z"/><path d="m114.53 76.13c.001 3.545-2.873 6.419-6.418 6.42-.004 0-.008 0-.012 0h-3.77v-12.84h3.77c3.547-.004 6.426 2.869 6.43 6.416z"/><path d="m114.53 51.87c.001 3.545-2.873 6.419-6.418 6.42-.004 0-.008 0-.012 0h-3.77v-12.84h3.77c3.547-.004 6.426 2.869 6.43 6.416z"/><path d="m108.1 34.03h-3.77v-12.85h3.77c3.548-.002 6.427 2.873 6.429 6.421s-2.873 6.427-6.421 6.429c-.003 0-.006 0-.008 0z"/><path d="m51.464 78.1h-4.7c-.799-.001-1.446-.648-1.447-1.447v-4.7c-.003-2.578-2.092-4.667-4.67-4.67h-10.567c-2.578.003-4.667 2.092-4.67 4.67v4.7c-.001.799-.647 1.446-1.446 1.447h-4.71c-2.578.003-4.667 2.092-4.67 4.67v10.578c.003 2.578 2.092 4.667 4.67 4.67h4.71c.798.001 1.445.648 1.446 1.446v4.7c.003 2.578 2.092 4.667 4.67 4.67h10.569c2.578-.003 4.667-2.092 4.67-4.67v-4.7c.001-.799.648-1.445 1.447-1.446h4.7c2.578-.003 4.667-2.092 4.67-4.67v-10.582c-.005-2.577-2.095-4.664-4.672-4.666z"/></g></g></svg>